<svg width="500" height="22" viewBox="0 0 500 22" fill="none" xmlns="http://www.w3.org/2000/svg">
<g clip-path="url(#clip0_336_163)">
<path d="M0 22L19 22L1.77802 0L0 0L0 22Z" fill="#E418FF"/>
<path d="M47.4355 22H54L37.5647 0L31 0C36.4783 7.33334 41.957 14.6667 47.4355 22Z" fill="#E418FF"/>
<path d="M38.1501 22H45L27.8501 0L21 0C26.7165 7.33334 32.4334 14.6667 38.1501 22Z" fill="#E418FF"/>
<path d="M29.1501 22H36L18.8501 0L12 0C17.7165 7.33334 23.4334 14.6667 29.1501 22Z" fill="#E418FF"/>
<path d="M20.1501 22H27L9.85009 0L3 0C8.71651 7.33334 14.4334 14.6667 20.1501 22Z" fill="#E418FF"/>
<path d="M57.4355 22H64L47.5645 0L41 0C46.4785 7.33334 51.957 14.6667 57.4355 22Z" fill="#E418FF"/>
<path d="M66.4355 22H73L56.5645 0L50 0C55.4785 7.33334 60.957 14.6667 66.4355 22Z" fill="#E418FF"/>
<path d="M75.4355 22H82L65.5645 0L59 0C64.4785 7.33334 69.957 14.6667 75.4355 22Z" fill="#E418FF"/>
<path d="M85.4355 22H92L75.5645 0L69 0C74.4785 7.33334 79.957 14.6667 85.4355 22Z" fill="#E418FF"/>
<path d="M94.4355 22H101L84.5645 0L78 0C83.4785 7.33334 88.957 14.6667 94.4355 22Z" fill="#E418FF"/>
<path d="M104.15 22H111L93.8499 0L87 0C92.7167 7.33334 98.4334 14.6667 104.15 22Z" fill="#E418FF"/>
<path d="M114.149 22H121L103.849 0L97 0C102.716 7.33334 108.432 14.6667 114.149 22Z" fill="#E418FF"/>
<path d="M170.434 22H177L160.564 0L154 0C159.478 7.33334 164.956 14.6667 170.434 22Z" fill="#E418FF"/>
<path d="M123.434 22H130L113.564 0L107 0C112.478 7.33334 117.956 14.6667 123.434 22Z" fill="#E418FF"/>
<path d="M179.434 22H186L169.564 0L163 0C168.478 7.33334 173.956 14.6667 179.434 22Z" fill="#E418FF"/>
<path d="M217.434 22H224L207.564 0L201 0C206.478 7.33334 211.956 14.6667 217.434 22Z" fill="#E418FF"/>
<path d="M254.72 22H261L245.279 0L239 0C244.24 7.33334 249.48 14.6667 254.72 22Z" fill="#E418FF"/>
<path d="M291.434 22H298L281.564 0L275 0C280.478 7.33334 285.956 14.6667 291.434 22Z" fill="#E418FF"/>
<path d="M329.434 22H336L319.564 0L313 0C318.478 7.33334 323.956 14.6667 329.434 22Z" fill="#E418FF"/>
<path d="M395.434 22H402L385.564 0L379 0C384.478 7.33334 389.956 14.6667 395.434 22Z" fill="#E418FF"/>
<path d="M433.434 22H440L423.564 0L417 0C422.478 7.33334 427.956 14.6667 433.434 22Z" fill="#E418FF"/>
<path d="M133.149 22H140L122.849 0L116 0C121.716 7.33334 127.432 14.6667 133.149 22Z" fill="#E418FF"/>
<path d="M189.149 22H196L178.849 0L172 0C177.716 7.33334 183.432 14.6667 189.149 22Z" fill="#E418FF"/>
<path d="M227.149 22H234L216.849 0L210 0C215.716 7.33334 221.432 14.6667 227.149 22Z" fill="#E418FF"/>
<path d="M263.72 22H270L254.279 0L248 0C253.24 7.33334 258.48 14.6667 263.72 22Z" fill="#E418FF"/>
<path d="M301.149 22H308L290.849 0L284 0C289.716 7.33334 295.432 14.6667 301.149 22Z" fill="#E418FF"/>
<path d="M339.149 22H346L328.849 0L322 0C327.716 7.33334 333.432 14.6667 339.149 22Z" fill="#E418FF"/>
<path d="M367.149 22H374L356.849 0L350 0C355.716 7.33334 361.432 14.6667 367.149 22Z" fill="#E418FF"/>
<path d="M405.149 22H412L394.849 0L388 0C393.716 7.33334 399.432 14.6667 405.149 22Z" fill="#E418FF"/>
<path d="M442.434 22H449L432.564 0L426 0C431.478 7.33334 436.956 14.6667 442.434 22Z" fill="#E418FF"/>
<path d="M143.149 22H150L132.849 0L126 0C131.716 7.33334 137.432 14.6667 143.149 22Z" fill="#E418FF"/>
<path d="M199.149 22H206L188.849 0L182 0C187.716 7.33334 193.432 14.6667 199.149 22Z" fill="#E418FF"/>
<path d="M237.149 22H244L226.849 0L220 0C225.716 7.33334 231.432 14.6667 237.149 22Z" fill="#E418FF"/>
<path d="M273.149 22H280L262.849 0L256 0C261.716 7.33334 267.432 14.6667 273.149 22Z" fill="#E418FF"/>
<path d="M311.149 22H318L300.849 0L294 0C299.716 7.33334 305.432 14.6667 311.149 22Z" fill="#E418FF"/>
<path d="M347.72 22H354L338.279 0L332 0C337.24 7.33334 342.48 14.6667 347.72 22Z" fill="#E418FF"/>
<path d="M377.149 22H384L366.849 0L360 0C365.716 7.33334 371.432 14.6667 377.149 22Z" fill="#E418FF"/>
<path d="M415.149 22H422L404.849 0L398 0C403.716 7.33334 409.432 14.6667 415.149 22Z" fill="#E418FF"/>
<path d="M451.72 22H458L442.279 0L436 0C441.24 7.33334 446.48 14.6667 451.72 22Z" fill="#E418FF"/>
<path d="M151.72 22H158L142.279 0L136 0C141.24 7.33334 146.48 14.6667 151.72 22Z" fill="#E418FF"/>
<path d="M208.434 22H215L198.564 0L192 0C197.478 7.33334 202.956 14.6667 208.434 22Z" fill="#E418FF"/>
<path d="M245.72 22H252L236.279 0L230 0C235.24 7.33334 240.48 14.6667 245.72 22Z" fill="#E418FF"/>
<path d="M282.434 22H289L272.564 0L266 0C271.478 7.33334 276.956 14.6667 282.434 22Z" fill="#E418FF"/>
<path d="M320.434 22H327L310.564 0L304 0C309.478 7.33334 314.956 14.6667 320.434 22Z" fill="#E418FF"/>
<path d="M357.005 22L363 22L347.993 0L342 0C347.002 7.33334 352.003 14.6667 357.005 22Z" fill="#E418FF"/>
<path d="M386.434 22H393L376.564 0L370 0C375.478 7.33334 380.956 14.6667 386.434 22Z" fill="#E418FF"/>
<path d="M424.434 22H431L414.564 0L408 0C413.478 7.33334 418.956 14.6667 424.434 22Z" fill="#E418FF"/>
<path d="M460.72 22H467L451.279 0L445 0C450.24 7.33334 455.48 14.6667 460.72 22Z" fill="#E418FF"/>
<path d="M160.72 22H167L151.279 0L145 0C150.24 7.33334 155.48 14.6667 160.72 22Z" fill="#E418FF"/>
<path d="M442.15 22H449L431.85 0L425 0C430.717 7.33334 436.433 14.6667 442.15 22Z" fill="#E418FF"/>
<path d="M450.721 22H457L441.279 0L435 0C440.24 7.33334 445.481 14.6667 450.721 22Z" fill="#E418FF"/>
<path d="M459.721 22H466L450.279 0L444 0C449.24 7.33334 454.481 14.6667 459.721 22Z" fill="#E418FF"/>
<path d="M488.15 22H495L477.85 0L471 0C476.717 7.33334 482.433 14.6667 488.15 22Z" fill="#E418FF"/>
<path d="M469.434 22H476L459.564 0L453 0C458.478 7.33334 463.956 14.6667 469.434 22Z" fill="#E418FF"/>
<path d="M478.434 22H485L468.564 0L462 0C467.478 7.33334 472.956 14.6667 478.434 22Z" fill="#E418FF"/>
<path d="M500 -1.06075e-06H481L498.222 22H500V-1.06075e-06Z" fill="#E418FF"/>
</g>
<defs>
<clipPath id="clip0_336_163">
<rect width="500" height="22" fill="white"/>
</clipPath>
</defs>
</svg>
