<svg width="5153" height="22" viewBox="0 0 5153 22" fill="none" xmlns="http://www.w3.org/2000/svg">
<g clip-path="url(#clip0_377_462)">
<path d="M-1 22L44.7438 22L3.28071 0L-1 0L-1 22Z" fill="#FF49B8"/>
<path d="M180.579 22H197.04L155.825 0L139.363 0C153.101 7.33334 166.84 14.6667 180.579 22Z" fill="#FF49B8"/>
<path d="M203.579 22H220.04L178.825 0L162.363 0C176.101 7.33334 189.84 14.6667 203.579 22Z" fill="#FF49B8"/>
<path d="M117.215 22H133.677L92.4622 0L76 0C89.738 7.33334 103.477 14.6667 117.215 22Z" fill="#FF49B8"/>
<path d="M49.2153 22H65.677L24.4622 0L8 0C21.738 7.33334 35.4768 14.6667 49.2153 22Z" fill="#FF49B8"/>
<path d="M225.446 22H241.907L200.692 0L184.23 0C197.969 7.33334 211.707 14.6667 225.446 22Z" fill="#FF49B8"/>
<path d="M247.892 22H263.786L223.992 0L208.098 0C221.362 7.33334 234.627 14.6667 247.892 22Z" fill="#FF49B8"/>
<path d="M94.1918 22H110.654L69.4383 0L52.9766 0C66.715 7.33334 80.4534 14.6667 94.1918 22Z" fill="#FF49B8"/>
<path d="M159.055 22H175.517L134.302 0L117.84 0C131.578 7.33334 145.317 14.6667 159.055 22Z" fill="#FF49B8"/>
<path d="M643.329 22H659.79L618.575 0L602.113 0C615.852 7.33334 629.59 14.6667 643.329 22Z" fill="#FF49B8"/>
<path d="M1130.6 22H1147.06L1105.84 0L1089.38 0C1103.12 7.33334 1116.86 14.6667 1130.6 22Z" fill="#FF49B8"/>
<path d="M1617.87 22H1634.33L1593.12 0L1576.66 0C1590.39 7.33334 1604.13 14.6667 1617.87 22Z" fill="#FF49B8"/>
<path d="M2845.32 22H2861.78L2820.56 0L2804.1 0C2817.84 7.33334 2831.58 14.6667 2845.32 22Z" fill="#FF49B8"/>
<path d="M3680.64 22H3697.1L3655.88 0L3639.42 0C3653.16 7.33334 3666.9 14.6667 3680.64 22Z" fill="#FF49B8"/>
<path d="M2105.14 22H2121.6L2080.39 0L2063.93 0C2077.66 7.33334 2091.4 14.6667 2105.14 22Z" fill="#FF49B8"/>
<path d="M2497.27 22H2513.73L2472.51 0L2456.05 0C2469.79 7.33334 2483.53 14.6667 2497.27 22Z" fill="#FF49B8"/>
<path d="M3332.59 22H3349.05L3307.83 0L3291.37 0C3305.11 7.33334 3318.85 14.6667 3332.59 22Z" fill="#FF49B8"/>
<path d="M227.501 22H243.395L203.601 0L187.707 0C200.972 7.33334 214.236 14.6667 227.501 22Z" fill="#FF49B8"/>
<path d="M665.775 22H681.669L641.875 0L625.98 0C639.245 7.33334 652.51 14.6667 665.775 22Z" fill="#FF49B8"/>
<path d="M1153.04 22H1168.94L1129.14 0L1113.25 0C1126.51 7.33334 1139.78 14.6667 1153.04 22Z" fill="#FF49B8"/>
<path d="M1640.32 22H1656.21L1616.42 0L1600.52 0C1613.79 7.33334 1627.05 14.6667 1640.32 22Z" fill="#FF49B8"/>
<path d="M2867.76 22H2883.65L2843.86 0L2827.96 0C2841.23 7.33334 2854.49 14.6667 2867.76 22Z" fill="#FF49B8"/>
<path d="M3703.08 22H3718.98L3679.18 0L3663.29 0C3676.55 7.33334 3689.82 14.6667 3703.08 22Z" fill="#FF49B8"/>
<path d="M2127.59 22H2143.48L2103.69 0L2087.79 0C2101.06 7.33334 2114.32 14.6667 2127.59 22Z" fill="#FF49B8"/>
<path d="M2519.71 22H2535.61L2495.81 0L2479.92 0C2493.18 7.33334 2506.45 14.6667 2519.71 22Z" fill="#FF49B8"/>
<path d="M3355.03 22H3370.93L3331.13 0L3315.24 0C3328.5 7.33334 3341.77 14.6667 3355.03 22Z" fill="#FF49B8"/>
<path d="M250.801 22H267.263L226.048 0L209.586 0C223.324 7.33334 237.063 14.6667 250.801 22Z" fill="#FF49B8"/>
<path d="M689.071 22H705.532L664.317 0L647.855 0C661.594 7.33334 675.332 14.6667 689.071 22Z" fill="#FF49B8"/>
<path d="M1176.34 22H1192.81L1151.59 0L1135.13 0C1148.87 7.33334 1162.61 14.6667 1176.34 22Z" fill="#FF49B8"/>
<path d="M1663.61 22H1680.08L1638.86 0L1622.4 0C1636.14 7.33334 1649.88 14.6667 1663.61 22Z" fill="#FF49B8"/>
<path d="M2891.06 22H2907.52L2866.31 0L2849.84 0C2863.58 7.33334 2877.32 14.6667 2891.06 22Z" fill="#FF49B8"/>
<path d="M3726.38 22H3742.84L3701.63 0L3685.17 0C3698.91 7.33334 3712.64 14.6667 3726.38 22Z" fill="#FF49B8"/>
<path d="M2150.89 22H2167.35L2126.13 0L2109.67 0C2123.41 7.33334 2137.15 14.6667 2150.89 22Z" fill="#FF49B8"/>
<path d="M2543.01 22H2559.47L2518.25 0L2501.79 0C2515.53 7.33334 2529.27 14.6667 2543.01 22Z" fill="#FF49B8"/>
<path d="M3378.33 22H3394.79L3353.58 0L3337.11 0C3350.85 7.33334 3364.59 14.6667 3378.33 22Z" fill="#FF49B8"/>
<path d="M71.6651 22H88.1301L46.9135 0L30.4531 0C44.1904 7.33334 57.9278 14.6667 71.6651 22Z" fill="#FF49B8"/>
<path d="M712.935 22H729.4L688.183 0L671.723 0C685.46 7.33334 699.197 14.6667 712.935 22Z" fill="#FF49B8"/>
<path d="M1200.21 22H1216.67L1175.46 0L1159 0C1172.73 7.33334 1186.47 14.6667 1200.21 22Z" fill="#FF49B8"/>
<path d="M1687.48 22H1703.94L1662.73 0L1646.27 0C1660 7.33334 1673.74 14.6667 1687.48 22Z" fill="#FF49B8"/>
<path d="M2914.92 22H2931.39L2890.17 0L2873.71 0C2887.45 7.33334 2901.19 14.6667 2914.92 22Z" fill="#FF49B8"/>
<path d="M3750.24 22H3766.71L3725.49 0L3709.03 0C3722.77 7.33334 3736.51 14.6667 3750.24 22Z" fill="#FF49B8"/>
<path d="M2174.75 22H2191.22L2150 0L2133.54 0C2147.28 7.33334 2161.01 14.6667 2174.75 22Z" fill="#FF49B8"/>
<path d="M2566.87 22H2583.34L2542.12 0L2525.66 0C2539.4 7.33334 2553.13 14.6667 2566.87 22Z" fill="#FF49B8"/>
<path d="M3402.19 22H3418.66L3377.44 0L3360.98 0C3374.72 7.33334 3388.46 14.6667 3402.19 22Z" fill="#FF49B8"/>
<path d="M364.884 22H381.349L340.132 0L323.672 0C337.409 7.33334 351.147 14.6667 364.884 22Z" fill="#FF49B8"/>
<path d="M852.157 22H868.622L827.406 0L810.945 0C824.683 7.33334 838.42 14.6667 852.157 22Z" fill="#FF49B8"/>
<path d="M1339.43 22H1355.89L1314.68 0L1298.21 0C1311.95 7.33334 1325.69 14.6667 1339.43 22Z" fill="#FF49B8"/>
<path d="M1826.7 22H1843.16L1801.94 0L1785.48 0C1799.22 7.33334 1812.96 14.6667 1826.7 22Z" fill="#FF49B8"/>
<path d="M3054.14 22H3070.61L3029.39 0L3012.93 0C3026.67 7.33334 3040.4 14.6667 3054.14 22Z" fill="#FF49B8"/>
<path d="M3889.47 22H3905.93L3864.71 0L3848.25 0C3861.99 7.33334 3875.73 14.6667 3889.47 22Z" fill="#FF49B8"/>
<path d="M2313.97 22H2330.43L2289.22 0L2272.76 0C2286.5 7.33334 2300.23 14.6667 2313.97 22Z" fill="#FF49B8"/>
<path d="M2706.09 22H2722.56L2681.34 0L2664.88 0C2678.62 7.33334 2692.35 14.6667 2706.09 22Z" fill="#FF49B8"/>
<path d="M3541.42 22H3557.88L3516.66 0L3500.2 0C3513.94 7.33334 3527.68 14.6667 3541.42 22Z" fill="#FF49B8"/>
<path d="M504.103 22H520.568L479.351 0L462.891 0C476.628 7.33334 490.365 14.6667 504.103 22Z" fill="#FF49B8"/>
<path d="M991.376 22H1007.84L966.624 0L950.164 0C963.901 7.33334 977.639 14.6667 991.376 22Z" fill="#FF49B8"/>
<path d="M1478.65 22H1495.11L1453.89 0L1437.43 0C1451.17 7.33334 1464.91 14.6667 1478.65 22Z" fill="#FF49B8"/>
<path d="M1965.92 22H1982.38L1941.17 0L1924.71 0C1938.44 7.33334 1952.18 14.6667 1965.92 22Z" fill="#FF49B8"/>
<path d="M3193.36 22H3209.83L3168.61 0L3152.15 0C3165.89 7.33334 3179.63 14.6667 3193.36 22Z" fill="#FF49B8"/>
<path d="M4028.68 22H4045.15L4003.93 0L3987.47 0C4001.21 7.33334 4014.95 14.6667 4028.68 22Z" fill="#FF49B8"/>
<path d="M138.107 22H154.005L114.209 0L98.3164 0C111.58 7.33334 124.844 14.6667 138.107 22Z" fill="#FF49B8"/>
<path d="M735.381 22H751.278L711.483 0L695.59 0C708.853 7.33334 722.117 14.6667 735.381 22Z" fill="#FF49B8"/>
<path d="M1222.65 22H1238.55L1198.75 0L1182.86 0C1196.12 7.33334 1209.39 14.6667 1222.65 22Z" fill="#FF49B8"/>
<path d="M1709.92 22H1725.82L1686.03 0L1670.13 0C1683.4 7.33334 1696.66 14.6667 1709.92 22Z" fill="#FF49B8"/>
<path d="M2937.37 22H2953.27L2913.47 0L2897.58 0C2910.84 7.33334 2924.11 14.6667 2937.37 22Z" fill="#FF49B8"/>
<path d="M3772.69 22H3788.59L3748.79 0L3732.9 0C3746.16 7.33334 3759.43 14.6667 3772.69 22Z" fill="#FF49B8"/>
<path d="M2197.19 22H2213.09L2173.3 0L2157.4 0C2170.67 7.33334 2183.93 14.6667 2197.19 22Z" fill="#FF49B8"/>
<path d="M2589.32 22H2605.22L2565.42 0L2549.53 0C2562.79 7.33334 2576.05 14.6667 2589.32 22Z" fill="#FF49B8"/>
<path d="M3424.64 22H3440.54L3400.74 0L3384.85 0C3398.11 7.33334 3411.37 14.6667 3424.64 22Z" fill="#FF49B8"/>
<path d="M387.33 22H403.227L363.432 0L347.539 0C360.803 7.33334 374.066 14.6667 387.33 22Z" fill="#FF49B8"/>
<path d="M874.599 22H890.497L850.701 0L834.809 0C848.072 7.33334 861.336 14.6667 874.599 22Z" fill="#FF49B8"/>
<path d="M1361.87 22H1377.77L1337.97 0L1322.08 0C1335.35 7.33334 1348.61 14.6667 1361.87 22Z" fill="#FF49B8"/>
<path d="M1849.14 22H1865.04L1825.24 0L1809.35 0C1822.62 7.33334 1835.88 14.6667 1849.14 22Z" fill="#FF49B8"/>
<path d="M3076.59 22H3092.49L3052.69 0L3036.8 0C3050.06 7.33334 3063.32 14.6667 3076.59 22Z" fill="#FF49B8"/>
<path d="M3911.91 22H3927.81L3888.01 0L3872.12 0C3885.38 7.33334 3898.65 14.6667 3911.91 22Z" fill="#FF49B8"/>
<path d="M2336.42 22H2352.31L2312.52 0L2296.62 0C2309.89 7.33334 2323.15 14.6667 2336.42 22Z" fill="#FF49B8"/>
<path d="M2728.54 22H2744.43L2704.64 0L2688.75 0C2702.01 7.33334 2715.27 14.6667 2728.54 22Z" fill="#FF49B8"/>
<path d="M3563.86 22H3579.76L3539.96 0L3524.07 0C3537.33 7.33334 3550.6 14.6667 3563.86 22Z" fill="#FF49B8"/>
<path d="M526.549 22H542.446L502.651 0L486.758 0C500.021 7.33334 513.285 14.6667 526.549 22Z" fill="#FF49B8"/>
<path d="M1013.82 22H1029.72L989.924 0L974.031 0C987.295 7.33334 1000.56 14.6667 1013.82 22Z" fill="#FF49B8"/>
<path d="M1501.09 22H1516.99L1477.19 0L1461.3 0C1474.56 7.33334 1487.83 14.6667 1501.09 22Z" fill="#FF49B8"/>
<path d="M1988.37 22H2004.26L1964.47 0L1948.57 0C1961.84 7.33334 1975.1 14.6667 1988.37 22Z" fill="#FF49B8"/>
<path d="M3215.81 22H3231.71L3191.91 0L3176.02 0C3189.28 7.33334 3202.55 14.6667 3215.81 22Z" fill="#FF49B8"/>
<path d="M4051.13 22H4067.03L4027.23 0L4011.34 0C4024.6 7.33334 4037.87 14.6667 4051.13 22Z" fill="#FF49B8"/>
<path d="M271.407 22H287.872L246.656 0L230.195 0C243.933 7.33334 257.67 14.6667 271.407 22Z" fill="#FF49B8"/>
<path d="M758.681 22H775.146L733.929 0L717.469 0C731.206 7.33334 744.943 14.6667 758.681 22Z" fill="#FF49B8"/>
<path d="M1245.95 22H1262.42L1221.2 0L1204.74 0C1218.48 7.33334 1232.21 14.6667 1245.95 22Z" fill="#FF49B8"/>
<path d="M1733.22 22H1749.68L1708.47 0L1692.01 0C1705.75 7.33334 1719.48 14.6667 1733.22 22Z" fill="#FF49B8"/>
<path d="M2960.67 22H2977.13L2935.91 0L2919.45 0C2933.19 7.33334 2946.93 14.6667 2960.67 22Z" fill="#FF49B8"/>
<path d="M3795.99 22H3812.45L3771.24 0L3754.78 0C3768.51 7.33334 3782.25 14.6667 3795.99 22Z" fill="#FF49B8"/>
<path d="M2220.49 22H2236.96L2195.74 0L2179.28 0C2193.02 7.33334 2206.76 14.6667 2220.49 22Z" fill="#FF49B8"/>
<path d="M2612.61 22H2629.08L2587.86 0L2571.4 0C2585.14 7.33334 2598.88 14.6667 2612.61 22Z" fill="#FF49B8"/>
<path d="M3447.94 22H3464.4L3423.19 0L3406.73 0C3420.46 7.33334 3434.2 14.6667 3447.94 22Z" fill="#FF49B8"/>
<path d="M410.63 22H427.095L385.878 0L369.418 0C383.155 7.33334 396.893 14.6667 410.63 22Z" fill="#FF49B8"/>
<path d="M897.899 22H914.365L873.148 0L856.688 0C870.425 7.33334 884.162 14.6667 897.899 22Z" fill="#FF49B8"/>
<path d="M1385.17 22H1401.63L1360.42 0L1343.96 0C1357.69 7.33334 1371.43 14.6667 1385.17 22Z" fill="#FF49B8"/>
<path d="M1872.44 22H1888.91L1847.69 0L1831.23 0C1844.97 7.33334 1858.71 14.6667 1872.44 22Z" fill="#FF49B8"/>
<path d="M3099.89 22H3116.35L3075.14 0L3058.68 0C3072.41 7.33334 3086.15 14.6667 3099.89 22Z" fill="#FF49B8"/>
<path d="M3935.21 22H3951.67L3910.46 0L3894 0C3907.73 7.33334 3921.47 14.6667 3935.21 22Z" fill="#FF49B8"/>
<path d="M2359.71 22H2376.18L2334.96 0L2318.5 0C2332.24 7.33334 2345.97 14.6667 2359.71 22Z" fill="#FF49B8"/>
<path d="M2751.84 22H2768.3L2727.09 0L2710.62 0C2724.36 7.33334 2738.1 14.6667 2751.84 22Z" fill="#FF49B8"/>
<path d="M3587.16 22H3603.62L3562.41 0L3545.95 0C3559.68 7.33334 3573.42 14.6667 3587.16 22Z" fill="#FF49B8"/>
<path d="M549.849 22H566.314L525.097 0L508.637 0C522.374 7.33334 536.111 14.6667 549.849 22Z" fill="#FF49B8"/>
<path d="M1037.12 22H1053.58L1012.37 0L995.906 0C1009.64 7.33334 1023.38 14.6667 1037.12 22Z" fill="#FF49B8"/>
<path d="M1524.39 22H1540.86L1499.64 0L1483.18 0C1496.92 7.33334 1510.65 14.6667 1524.39 22Z" fill="#FF49B8"/>
<path d="M2011.66 22H2028.13L1986.91 0L1970.45 0C1984.19 7.33334 1997.92 14.6667 2011.66 22Z" fill="#FF49B8"/>
<path d="M3239.11 22H3255.57L3214.35 0L3197.89 0C3211.63 7.33334 3225.37 14.6667 3239.11 22Z" fill="#FF49B8"/>
<path d="M4074.43 22H4090.9L4049.68 0L4033.22 0C4046.96 7.33334 4060.69 14.6667 4074.43 22Z" fill="#FF49B8"/>
<path d="M295.274 22H311.74L270.523 0L254.062 0C267.8 7.33334 281.537 14.6667 295.274 22Z" fill="#FF49B8"/>
<path d="M782.544 22H799.009L757.792 0L741.332 0C755.069 7.33334 768.807 14.6667 782.544 22Z" fill="#FF49B8"/>
<path d="M1269.82 22H1286.28L1245.07 0L1228.61 0C1242.34 7.33334 1256.08 14.6667 1269.82 22Z" fill="#FF49B8"/>
<path d="M1757.09 22H1773.55L1732.34 0L1715.88 0C1729.61 7.33334 1743.35 14.6667 1757.09 22Z" fill="#FF49B8"/>
<path d="M2984.53 22H3001L2959.78 0L2943.32 0C2957.06 7.33334 2970.79 14.6667 2984.53 22Z" fill="#FF49B8"/>
<path d="M3819.86 22H3836.32L3795.1 0L3778.64 0C3792.38 7.33334 3806.12 14.6667 3819.86 22Z" fill="#FF49B8"/>
<path d="M2244.36 22H2260.83L2219.61 0L2203.15 0C2216.89 7.33334 2230.62 14.6667 2244.36 22Z" fill="#FF49B8"/>
<path d="M2636.48 22H2652.95L2611.73 0L2595.27 0C2609.01 7.33334 2622.74 14.6667 2636.48 22Z" fill="#FF49B8"/>
<path d="M3471.81 22H3488.27L3447.05 0L3430.59 0C3444.33 7.33334 3458.07 14.6667 3471.81 22Z" fill="#FF49B8"/>
<path d="M434.493 22H450.958L409.742 0L393.281 0C407.019 7.33334 420.756 14.6667 434.493 22Z" fill="#FF49B8"/>
<path d="M921.767 22H938.232L897.015 0L880.555 0C894.292 7.33334 908.029 14.6667 921.767 22Z" fill="#FF49B8"/>
<path d="M1409.04 22H1425.5L1384.28 0L1367.82 0C1381.56 7.33334 1395.3 14.6667 1409.04 22Z" fill="#FF49B8"/>
<path d="M1896.31 22H1912.77L1871.56 0L1855.1 0C1868.83 7.33334 1882.57 14.6667 1896.31 22Z" fill="#FF49B8"/>
<path d="M3123.75 22H3140.22L3099 0L3082.54 0C3096.28 7.33334 3110.02 14.6667 3123.75 22Z" fill="#FF49B8"/>
<path d="M3959.08 22H3975.54L3934.32 0L3917.86 0C3931.6 7.33334 3945.34 14.6667 3959.08 22Z" fill="#FF49B8"/>
<path d="M573.716 22H590.181L548.964 0L532.504 0C546.241 7.33334 559.979 14.6667 573.716 22Z" fill="#FF49B8"/>
<path d="M1060.99 22H1077.45L1036.23 0L1019.77 0C1033.51 7.33334 1047.25 14.6667 1060.99 22Z" fill="#FF49B8"/>
<path d="M1548.26 22H1564.72L1523.51 0L1507.05 0C1520.78 7.33334 1534.52 14.6667 1548.26 22Z" fill="#FF49B8"/>
<path d="M2383.58 22H2400.04L2358.83 0L2342.37 0C2356.1 7.33334 2369.84 14.6667 2383.58 22Z" fill="#FF49B8"/>
<path d="M2775.7 22H2792.17L2750.95 0L2734.49 0C2748.23 7.33334 2761.96 14.6667 2775.7 22Z" fill="#FF49B8"/>
<path d="M3611.02 22H3627.49L3586.27 0L3569.81 0C3583.55 7.33334 3597.29 14.6667 3611.02 22Z" fill="#FF49B8"/>
<path d="M2035.53 22H2051.99L2010.78 0L1994.32 0C2008.05 7.33334 2021.79 14.6667 2035.53 22Z" fill="#FF49B8"/>
<path d="M2427.65 22H2444.12L2402.9 0L2386.44 0C2400.18 7.33334 2413.92 14.6667 2427.65 22Z" fill="#FF49B8"/>
<path d="M3262.97 22H3279.44L3238.22 0L3221.76 0C3235.5 7.33334 3249.24 14.6667 3262.97 22Z" fill="#FF49B8"/>
<path d="M317.72 22H333.618L293.822 0L277.93 0C291.193 7.33334 304.457 14.6667 317.72 22Z" fill="#FF49B8"/>
<path d="M804.99 22H820.887L781.092 0L765.199 0C778.463 7.33334 791.726 14.6667 804.99 22Z" fill="#FF49B8"/>
<path d="M1292.26 22H1308.16L1268.37 0L1252.47 0C1265.74 7.33334 1279 14.6667 1292.26 22Z" fill="#FF49B8"/>
<path d="M1779.53 22H1795.43L1755.63 0L1739.74 0C1753.01 7.33334 1766.27 14.6667 1779.53 22Z" fill="#FF49B8"/>
<path d="M3006.98 22H3022.88L2983.08 0L2967.19 0C2980.45 7.33334 2993.71 14.6667 3006.98 22Z" fill="#FF49B8"/>
<path d="M3842.3 22H3858.2L3818.4 0L3802.51 0C3815.77 7.33334 3829.04 14.6667 3842.3 22Z" fill="#FF49B8"/>
<path d="M2266.8 22H2282.7L2242.9 0L2227.01 0C2240.28 7.33334 2253.54 14.6667 2266.8 22Z" fill="#FF49B8"/>
<path d="M2658.93 22H2674.82L2635.03 0L2619.14 0C2632.4 7.33334 2645.66 14.6667 2658.93 22Z" fill="#FF49B8"/>
<path d="M3494.25 22H3510.15L3470.35 0L3454.46 0C3467.72 7.33334 3480.98 14.6667 3494.25 22Z" fill="#FF49B8"/>
<path d="M456.939 22H472.837L433.041 0L417.148 0C430.412 7.33334 443.676 14.6667 456.939 22Z" fill="#FF49B8"/>
<path d="M944.213 22H960.11L920.315 0L904.422 0C917.685 7.33334 930.949 14.6667 944.213 22Z" fill="#FF49B8"/>
<path d="M1431.48 22H1447.38L1407.58 0L1391.69 0C1404.96 7.33334 1418.22 14.6667 1431.48 22Z" fill="#FF49B8"/>
<path d="M1918.75 22H1934.65L1894.85 0L1878.96 0C1892.22 7.33334 1905.49 14.6667 1918.75 22Z" fill="#FF49B8"/>
<path d="M3146.2 22H3162.09L3122.3 0L3106.41 0C3119.67 7.33334 3132.93 14.6667 3146.2 22Z" fill="#FF49B8"/>
<path d="M3981.52 22H3997.42L3957.62 0L3941.73 0C3954.99 7.33334 3968.26 14.6667 3981.52 22Z" fill="#FF49B8"/>
<path d="M596.158 22H612.055L572.26 0L556.367 0C569.631 7.33334 582.894 14.6667 596.158 22Z" fill="#FF49B8"/>
<path d="M1083.43 22H1099.33L1059.53 0L1043.64 0C1056.9 7.33334 1070.17 14.6667 1083.43 22Z" fill="#FF49B8"/>
<path d="M1570.7 22H1586.6L1546.8 0L1530.91 0C1544.17 7.33334 1557.44 14.6667 1570.7 22Z" fill="#FF49B8"/>
<path d="M2406.03 22H2421.92L2382.13 0L2366.23 0C2379.5 7.33334 2392.76 14.6667 2406.03 22Z" fill="#FF49B8"/>
<path d="M2798.15 22H2814.04L2774.25 0L2758.36 0C2771.62 7.33334 2784.88 14.6667 2798.15 22Z" fill="#FF49B8"/>
<path d="M3633.47 22H3649.37L3609.57 0L3593.68 0C3606.94 7.33334 3620.21 14.6667 3633.47 22Z" fill="#FF49B8"/>
<path d="M2057.97 22H2073.87L2034.08 0L2018.18 0C2031.45 7.33334 2044.71 14.6667 2057.97 22Z" fill="#FF49B8"/>
<path d="M2450.1 22H2465.99L2426.2 0L2410.3 0C2423.57 7.33334 2436.83 14.6667 2450.1 22Z" fill="#FF49B8"/>
<path d="M3285.42 22H3301.32L3261.52 0L3245.63 0C3258.89 7.33334 3272.16 14.6667 3285.42 22Z" fill="#FF49B8"/>
<path d="M341.017 22H357.482L316.265 0L299.805 0C313.542 7.33334 327.279 14.6667 341.017 22Z" fill="#FF49B8"/>
<path d="M828.29 22H844.755L803.539 0L787.078 0C800.815 7.33334 814.553 14.6667 828.29 22Z" fill="#FF49B8"/>
<path d="M1315.56 22H1332.02L1290.81 0L1274.35 0C1288.08 7.33334 1301.82 14.6667 1315.56 22Z" fill="#FF49B8"/>
<path d="M1802.83 22H1819.3L1778.08 0L1761.62 0C1775.36 7.33334 1789.1 14.6667 1802.83 22Z" fill="#FF49B8"/>
<path d="M3030.28 22H3046.74L3005.53 0L2989.07 0C3002.8 7.33334 3016.54 14.6667 3030.28 22Z" fill="#FF49B8"/>
<path d="M3865.6 22H3882.06L3840.85 0L3824.39 0C3838.12 7.33334 3851.86 14.6667 3865.6 22Z" fill="#FF49B8"/>
<path d="M2290.1 22H2306.57L2265.35 0L2248.89 0C2262.63 7.33334 2276.37 14.6667 2290.1 22Z" fill="#FF49B8"/>
<path d="M2682.22 22H2698.69L2657.47 0L2641.01 0C2654.75 7.33334 2668.49 14.6667 2682.22 22Z" fill="#FF49B8"/>
<path d="M3517.55 22H3534.01L3492.8 0L3476.34 0C3490.07 7.33334 3503.81 14.6667 3517.55 22Z" fill="#FF49B8"/>
<path d="M480.239 22H496.704L455.488 0L439.027 0C452.765 7.33334 466.502 14.6667 480.239 22Z" fill="#FF49B8"/>
<path d="M967.509 22H983.974L942.757 0L926.297 0C940.034 7.33334 953.771 14.6667 967.509 22Z" fill="#FF49B8"/>
<path d="M1454.78 22H1471.25L1430.03 0L1413.57 0C1427.31 7.33334 1441.04 14.6667 1454.78 22Z" fill="#FF49B8"/>
<path d="M1942.05 22H1958.52L1917.3 0L1900.84 0C1914.58 7.33334 1928.31 14.6667 1942.05 22Z" fill="#FF49B8"/>
<path d="M3169.5 22H3185.96L3144.75 0L3128.29 0C3142.02 7.33334 3155.76 14.6667 3169.5 22Z" fill="#FF49B8"/>
<path d="M4004.82 22H4021.28L3980.07 0L3963.61 0C3977.34 7.33334 3991.08 14.6667 4004.82 22Z" fill="#FF49B8"/>
<path d="M619.458 22H635.923L594.706 0L578.246 0C591.983 7.33334 605.721 14.6667 619.458 22Z" fill="#FF49B8"/>
<path d="M1106.73 22H1123.2L1081.98 0L1065.52 0C1079.26 7.33334 1092.99 14.6667 1106.73 22Z" fill="#FF49B8"/>
<path d="M1594 22H1610.47L1569.25 0L1552.79 0C1566.53 7.33334 1580.26 14.6667 1594 22Z" fill="#FF49B8"/>
<path d="M2429.32 22H2445.79L2404.57 0L2388.11 0C2401.85 7.33334 2415.58 14.6667 2429.32 22Z" fill="#FF49B8"/>
<path d="M2821.45 22H2837.91L2796.69 0L2780.23 0C2793.97 7.33334 2807.71 14.6667 2821.45 22Z" fill="#FF49B8"/>
<path d="M3656.77 22H3673.23L3632.02 0L3615.55 0C3629.29 7.33334 3643.03 14.6667 3656.77 22Z" fill="#FF49B8"/>
<path d="M2081.27 22H2097.74L2056.52 0L2040.06 0C2053.8 7.33334 2067.53 14.6667 2081.27 22Z" fill="#FF49B8"/>
<path d="M2473.4 22H2489.86L2448.64 0L2432.18 0C2445.92 7.33334 2459.66 14.6667 2473.4 22Z" fill="#FF49B8"/>
<path d="M3308.72 22H3325.18L3283.96 0L3267.5 0C3281.24 7.33334 3294.98 14.6667 3308.72 22Z" fill="#FF49B8"/>
<path d="M4522.49 22H4538.95L4497.74 0L4481.28 0C4495.02 7.33334 4508.75 14.6667 4522.49 22Z" fill="#FF49B8"/>
<path d="M4892.42 22H4908.88L4867.66 0L4851.2 0C4864.94 7.33334 4878.68 14.6667 4892.42 22Z" fill="#FF49B8"/>
<path d="M4544.94 22H4560.83L4521.04 0L4505.14 0C4518.41 7.33334 4531.67 14.6667 4544.94 22Z" fill="#FF49B8"/>
<path d="M4918.86 22H4934.76L4894.96 0L4879.07 0C4892.34 7.33334 4905.6 14.6667 4918.86 22Z" fill="#FF49B8"/>
<path d="M4568.23 22H4584.7L4543.48 0L4527.02 0C4540.76 7.33334 4554.5 14.6667 4568.23 22Z" fill="#FF49B8"/>
<path d="M4942.8 22H4959.26L4918.04 0L4901.58 0C4915.32 7.33334 4929.06 14.6667 4942.8 22Z" fill="#FF49B8"/>
<path d="M4964.67 22H4981.13L4939.92 0L4923.46 0C4937.2 7.33334 4950.93 14.6667 4964.67 22Z" fill="#FF49B8"/>
<path d="M4987.73 22H5004.19L4962.97 0L4946.51 0C4960.25 7.33334 4973.99 14.6667 4987.73 22Z" fill="#FF49B8"/>
<path d="M5010.78 22H5027.24L4986.03 0L4969.57 0C4983.3 7.33334 4997.04 14.6667 5010.78 22Z" fill="#FF49B8"/>
<path d="M5033.84 22H5050.3L5009.08 0L4992.62 0C5006.36 7.33334 5020.1 14.6667 5033.84 22Z" fill="#FF49B8"/>
<path d="M5056.89 22H5073.35L5032.14 0L5015.68 0C5029.41 7.33334 5043.15 14.6667 5056.89 22Z" fill="#FF49B8"/>
<path d="M5079.95 22H5096.41L5055.19 0L5038.73 0C5052.47 7.33334 5066.21 14.6667 5079.95 22Z" fill="#FF49B8"/>
<path d="M5103 22H5119.46L5078.25 0L5061.79 0C5075.52 7.33334 5089.26 14.6667 5103 22Z" fill="#FF49B8"/>
<path d="M5126.06 22H5142.52L5101.3 0L5084.84 0C5098.58 7.33334 5112.32 14.6667 5126.06 22Z" fill="#FF49B8"/>
<path d="M4099.83 22H4116.29L4075.07 0L4058.61 0C4072.35 7.33334 4086.09 14.6667 4099.83 22Z" fill="#FF49B8"/>
<path d="M4592.1 22H4608.56L4567.35 0L4550.89 0C4564.62 7.33334 4578.36 14.6667 4592.1 22Z" fill="#FF49B8"/>
<path d="M4239.05 22H4255.51L4214.3 0L4197.84 0C4211.57 7.33334 4225.31 14.6667 4239.05 22Z" fill="#FF49B8"/>
<path d="M4731.32 22H4747.78L4706.57 0L4690.11 0C4703.84 7.33334 4717.58 14.6667 4731.32 22Z" fill="#FF49B8"/>
<path d="M4378.27 22H4394.73L4353.52 0L4337.05 0C4350.79 7.33334 4364.53 14.6667 4378.27 22Z" fill="#FF49B8"/>
<path d="M4122.27 22H4138.17L4098.37 0L4082.48 0C4095.74 7.33334 4109.01 14.6667 4122.27 22Z" fill="#FF49B8"/>
<path d="M4614.54 22H4630.44L4590.65 0L4574.75 0C4588.02 7.33334 4601.28 14.6667 4614.54 22Z" fill="#FF49B8"/>
<path d="M4261.49 22H4277.39L4237.6 0L4221.7 0C4234.97 7.33334 4248.23 14.6667 4261.49 22Z" fill="#FF49B8"/>
<path d="M4753.76 22H4769.66L4729.87 0L4713.97 0C4727.24 7.33334 4740.5 14.6667 4753.76 22Z" fill="#FF49B8"/>
<path d="M4400.71 22H4416.61L4376.81 0L4360.92 0C4374.19 7.33334 4387.45 14.6667 4400.71 22Z" fill="#FF49B8"/>
<path d="M4145.57 22H4162.04L4120.82 0L4104.36 0C4118.1 7.33334 4131.83 14.6667 4145.57 22Z" fill="#FF49B8"/>
<path d="M4637.84 22H4654.31L4613.09 0L4596.63 0C4610.37 7.33334 4624.1 14.6667 4637.84 22Z" fill="#FF49B8"/>
<path d="M4284.79 22H4301.26L4260.04 0L4243.58 0C4257.32 7.33334 4271.06 14.6667 4284.79 22Z" fill="#FF49B8"/>
<path d="M4777.06 22H4793.53L4752.31 0L4735.85 0C4749.59 7.33334 4763.33 14.6667 4777.06 22Z" fill="#FF49B8"/>
<path d="M4424.01 22H4440.48L4399.26 0L4382.8 0C4396.54 7.33334 4410.28 14.6667 4424.01 22Z" fill="#FF49B8"/>
<path d="M4451.21 22H4467.68L4426.46 0L4410 0C4423.74 7.33334 4437.47 14.6667 4451.21 22Z" fill="#FF49B8"/>
<path d="M4169.43 22H4185.9L4144.68 0L4128.22 0C4141.96 7.33334 4155.7 14.6667 4169.43 22Z" fill="#FF49B8"/>
<path d="M4661.71 22H4678.17L4636.96 0L4620.5 0C4634.23 7.33334 4647.97 14.6667 4661.71 22Z" fill="#FF49B8"/>
<path d="M4308.66 22H4325.12L4283.91 0L4267.45 0C4281.18 7.33334 4294.92 14.6667 4308.66 22Z" fill="#FF49B8"/>
<path d="M4800.93 22H4817.39L4776.18 0L4759.71 0C4773.45 7.33334 4787.19 14.6667 4800.93 22Z" fill="#FF49B8"/>
<path d="M4191.88 22H4207.78L4167.98 0L4152.09 0C4165.35 7.33334 4178.62 14.6667 4191.88 22Z" fill="#FF49B8"/>
<path d="M4684.15 22H4700.05L4660.26 0L4644.36 0C4657.63 7.33334 4670.89 14.6667 4684.15 22Z" fill="#FF49B8"/>
<path d="M4331.1 22H4347L4307.21 0L4291.31 0C4304.58 7.33334 4317.84 14.6667 4331.1 22Z" fill="#FF49B8"/>
<path d="M4823.37 22H4839.27L4799.47 0L4783.58 0C4796.85 7.33334 4810.11 14.6667 4823.37 22Z" fill="#FF49B8"/>
<path d="M4475.32 22H4491.22L4451.42 0L4435.53 0C4448.79 7.33334 4462.06 14.6667 4475.32 22Z" fill="#FF49B8"/>
<path d="M4845.25 22H4861.15L4821.35 0L4805.46 0C4818.72 7.33334 4831.99 14.6667 4845.25 22Z" fill="#FF49B8"/>
<path d="M4215.18 22H4231.65L4190.43 0L4173.97 0C4187.71 7.33334 4201.44 14.6667 4215.18 22Z" fill="#FF49B8"/>
<path d="M4707.45 22H4723.92L4682.7 0L4666.24 0C4679.98 7.33334 4693.71 14.6667 4707.45 22Z" fill="#FF49B8"/>
<path d="M4354.4 22H4370.87L4329.65 0L4313.19 0C4326.93 7.33334 4340.67 14.6667 4354.4 22Z" fill="#FF49B8"/>
<path d="M4498.62 22H4515.09L4473.87 0L4457.41 0C4471.15 7.33334 4484.88 14.6667 4498.62 22Z" fill="#FF49B8"/>
<path d="M4868.55 22H4885.02L4843.8 0L4827.34 0C4841.08 7.33334 4854.81 14.6667 4868.55 22Z" fill="#FF49B8"/>
<path d="M5153.25 -1.06075e-06H5107.51L5148.97 22H5153.25V-1.06075e-06Z" fill="#FF49B8"/>
</g>
<defs>
<clipPath id="clip0_377_462">
<rect width="5153" height="22" fill="white"/>
</clipPath>
</defs>
</svg>
