<svg width="1000" height="22" viewBox="0 0 1000 22" fill="none" xmlns="http://www.w3.org/2000/svg">
<g clip-path="url(#clip0_418_157)">
<path d="M0 22H13.5417L1.26723 0L0 0L0 22Z" fill="#D7FB01"/>
<path d="M53.4265 22H58.332L46.0502 0L41.1445 0C45.2384 7.33334 49.3325 14.6667 53.4265 22Z" fill="#D7FB01"/>
<path d="M60.1999 22H65.1055L52.8236 0L47.918 0C52.0118 7.33334 56.106 14.6667 60.1999 22Z" fill="#D7FB01"/>
<path d="M34.6765 22H39.582L27.3002 0L22.3945 0C26.4884 7.33334 30.5825 14.6667 34.6765 22Z" fill="#D7FB01"/>
<path d="M14.5153 22H19.2721L7.36247 0L2.60547 0C6.57526 7.33334 10.5453 14.6667 14.5153 22Z" fill="#D7FB01"/>
<path d="M66.4499 22H71.3555L59.0735 0L54.168 0C58.262 7.33334 62.356 14.6667 66.4499 22Z" fill="#D7FB01"/>
<path d="M72.9946 22H77.6029L66.0653 0L61.457 0C65.3029 7.33334 69.1488 14.6667 72.9946 22Z" fill="#D7FB01"/>
<path d="M27.907 22H32.8125L20.5305 0L15.625 0C19.719 7.33334 23.813 14.6667 27.907 22Z" fill="#D7FB01"/>
<path d="M46.8043 22H51.5612L39.6514 0L34.8945 0C38.8645 7.33334 42.8344 14.6667 46.8043 22Z" fill="#D7FB01"/>
<path d="M189.515 22H194.272L182.362 0L177.605 0C181.575 7.33334 185.545 14.6667 189.515 22Z" fill="#D7FB01"/>
<path d="M333.265 22H338.022L326.112 0L321.355 0C325.325 7.33334 329.295 14.6667 333.265 22Z" fill="#D7FB01"/>
<path d="M476.864 22H481.77L469.488 0L464.582 0C468.676 7.33334 472.77 14.6667 476.864 22Z" fill="#D7FB01"/>
<path d="M566.078 22H570.835L558.925 0L554.168 0C558.138 7.33334 562.108 14.6667 566.078 22Z" fill="#D7FB01"/>
<path d="M67.1168 22H71.8737L59.9639 0L55.207 0C59.177 7.33334 63.1469 14.6667 67.1168 22Z" fill="#D7FB01"/>
<path d="M196.285 22H201.042L189.132 0L184.375 0C188.345 7.33334 192.315 14.6667 196.285 22Z" fill="#D7FB01"/>
<path d="M340.035 22H344.792L332.882 0L328.125 0C332.095 7.33334 336.065 14.6667 340.035 22Z" fill="#D7FB01"/>
<path d="M483.413 22H488.021L476.483 0L471.875 0C475.721 7.33334 479.567 14.6667 483.413 22Z" fill="#D7FB01"/>
<path d="M572.847 22H577.604L565.694 0L560.938 0C564.907 7.33334 568.877 14.6667 572.847 22Z" fill="#D7FB01"/>
<path d="M73.8903 22H78.6471L66.7374 0L61.9805 0C65.9504 7.33334 69.9203 14.6667 73.8903 22Z" fill="#D7FB01"/>
<path d="M203.054 22H207.811L195.901 0L191.145 0C195.114 7.33334 199.084 14.6667 203.054 22Z" fill="#D7FB01"/>
<path d="M346.657 22H351.562L339.281 0L334.375 0C338.469 7.33334 342.563 14.6667 346.657 22Z" fill="#D7FB01"/>
<path d="M490.407 22H495.312L483.031 0L478.125 0C482.219 7.33334 486.313 14.6667 490.407 22Z" fill="#D7FB01"/>
<path d="M579.469 22H584.375L572.093 0L567.188 0C571.281 7.33334 575.375 14.6667 579.469 22Z" fill="#D7FB01"/>
<path d="M21.1364 22H26.043L13.7606 0L8.85547 0C12.9491 7.33334 17.0428 14.6667 21.1364 22Z" fill="#D7FB01"/>
<path d="M210.199 22H215.105L202.823 0L197.918 0C202.012 7.33334 206.105 14.6667 210.199 22Z" fill="#D7FB01"/>
<path d="M353.949 22H358.855L346.573 0L341.668 0C345.762 7.33334 349.855 14.6667 353.949 22Z" fill="#D7FB01"/>
<path d="M497.327 22H502.085L490.174 0L485.418 0C489.388 7.33334 493.357 14.6667 497.327 22Z" fill="#D7FB01"/>
<path d="M586.761 22H591.668L579.386 0L574.48 0C578.574 7.33334 582.668 14.6667 586.761 22Z" fill="#D7FB01"/>
<path d="M107.593 22H112.5L100.218 0L95.3125 0C99.4062 7.33334 103.5 14.6667 107.593 22Z" fill="#D7FB01"/>
<path d="M251.343 22H256.25L243.968 0L239.062 0C243.156 7.33334 247.25 14.6667 251.343 22Z" fill="#D7FB01"/>
<path d="M394.721 22H399.479L387.569 0L382.812 0C386.782 7.33334 390.752 14.6667 394.721 22Z" fill="#D7FB01"/>
<path d="M538.324 22H543.23L530.948 0L526.043 0C530.137 7.33334 534.23 14.6667 538.324 22Z" fill="#D7FB01"/>
<path d="M627.534 22H632.292L620.381 0L615.625 0C619.595 7.33334 623.564 14.6667 627.534 22Z" fill="#D7FB01"/>
<path d="M148.738 22H153.645L141.362 0L136.457 0C140.551 7.33334 144.644 14.6667 148.738 22Z" fill="#D7FB01"/>
<path d="M292.116 22H296.874L284.964 0L280.207 0C284.177 7.33334 288.146 14.6667 292.116 22Z" fill="#D7FB01"/>
<path d="M435.718 22H440.625L428.343 0L423.438 0C427.531 7.33334 431.625 14.6667 435.718 22Z" fill="#D7FB01"/>
<path d="M668.531 22H673.438L661.155 0L656.25 0C660.344 7.33334 664.437 14.6667 668.531 22Z" fill="#D7FB01"/>
<path d="M40.7046 22H45.3138L33.7758 0L29.168 0C33.0135 7.33334 36.8591 14.6667 40.7046 22Z" fill="#D7FB01"/>
<path d="M216.744 22H221.353L209.815 0L205.207 0C209.053 7.33334 212.898 14.6667 216.744 22Z" fill="#D7FB01"/>
<path d="M360.346 22H365.104L353.194 0L348.438 0C352.407 7.33334 356.377 14.6667 360.346 22Z" fill="#D7FB01"/>
<path d="M504.096 22H508.854L496.944 0L492.188 0C496.157 7.33334 500.127 14.6667 504.096 22Z" fill="#D7FB01"/>
<path d="M593.159 22H597.917L586.006 0L581.25 0C585.22 7.33334 589.189 14.6667 593.159 22Z" fill="#D7FB01"/>
<path d="M114.142 22H118.751L107.213 0L102.605 0C106.451 7.33334 110.297 14.6667 114.142 22Z" fill="#D7FB01"/>
<path d="M257.892 22H262.501L250.963 0L246.355 0C250.201 7.33334 254.047 14.6667 257.892 22Z" fill="#D7FB01"/>
<path d="M401.491 22H406.249L394.339 0L389.582 0C393.552 7.33334 397.521 14.6667 401.491 22Z" fill="#D7FB01"/>
<path d="M634.303 22H639.061L627.151 0L622.395 0C626.364 7.33334 630.334 14.6667 634.303 22Z" fill="#D7FB01"/>
<path d="M155.287 22H159.896L148.358 0L143.75 0C147.596 7.33334 151.441 14.6667 155.287 22Z" fill="#D7FB01"/>
<path d="M298.889 22H303.647L291.737 0L286.98 0C290.95 7.33334 294.92 14.6667 298.889 22Z" fill="#D7FB01"/>
<path d="M442.267 22H446.876L435.338 0L430.73 0C434.576 7.33334 438.422 14.6667 442.267 22Z" fill="#D7FB01"/>
<path d="M675.08 22H679.689L668.151 0L663.543 0C667.389 7.33334 671.234 14.6667 675.08 22Z" fill="#D7FB01"/>
<path d="M79.988 22H84.8945L72.6122 0L67.707 0C71.8007 7.33334 75.8944 14.6667 79.988 22Z" fill="#D7FB01"/>
<path d="M223.738 22H228.645L216.362 0L211.457 0C215.551 7.33334 219.644 14.6667 223.738 22Z" fill="#D7FB01"/>
<path d="M367.116 22H371.874L359.964 0L355.207 0C359.177 7.33334 363.146 14.6667 367.116 22Z" fill="#D7FB01"/>
<path d="M510.718 22H515.625L503.343 0L498.438 0C502.531 7.33334 506.625 14.6667 510.718 22Z" fill="#D7FB01"/>
<path d="M599.928 22H604.686L592.776 0L588.02 0C591.989 7.33334 595.959 14.6667 599.928 22Z" fill="#D7FB01"/>
<path d="M121.136 22H126.043L113.761 0L108.855 0C112.949 7.33334 117.043 14.6667 121.136 22Z" fill="#D7FB01"/>
<path d="M264.886 22H269.793L257.511 0L252.605 0C256.699 7.33334 260.793 14.6667 264.886 22Z" fill="#D7FB01"/>
<path d="M408.264 22H413.022L401.112 0L396.355 0C400.325 7.33334 404.295 14.6667 408.264 22Z" fill="#D7FB01"/>
<path d="M641.077 22H645.835L633.924 0L629.168 0C633.138 7.33334 637.107 14.6667 641.077 22Z" fill="#D7FB01"/>
<path d="M162.281 22H167.188L154.905 0L150 0C154.094 7.33334 158.187 14.6667 162.281 22Z" fill="#D7FB01"/>
<path d="M305.659 22H310.417L298.506 0L293.75 0C297.72 7.33334 301.689 14.6667 305.659 22Z" fill="#D7FB01"/>
<path d="M449.261 22H454.168L441.886 0L436.98 0C441.074 7.33334 445.168 14.6667 449.261 22Z" fill="#D7FB01"/>
<path d="M682.074 22H686.98L674.698 0L669.793 0C673.887 7.33334 677.98 14.6667 682.074 22Z" fill="#D7FB01"/>
<path d="M87.281 22H92.1875L79.9051 0L75 0C79.0937 7.33334 83.1873 14.6667 87.281 22Z" fill="#D7FB01"/>
<path d="M230.659 22H235.417L223.506 0L218.75 0C222.72 7.33334 226.689 14.6667 230.659 22Z" fill="#D7FB01"/>
<path d="M374.261 22H379.168L366.886 0L361.98 0C366.074 7.33334 370.168 14.6667 374.261 22Z" fill="#D7FB01"/>
<path d="M518.011 22H522.918L510.636 0L505.73 0C509.824 7.33334 513.918 14.6667 518.011 22Z" fill="#D7FB01"/>
<path d="M607.074 22H611.98L599.698 0L594.793 0C598.887 7.33334 602.98 14.6667 607.074 22Z" fill="#D7FB01"/>
<path d="M128.053 22H132.811L120.901 0L116.145 0C120.114 7.33334 124.084 14.6667 128.053 22Z" fill="#D7FB01"/>
<path d="M271.656 22H276.562L264.28 0L259.375 0C263.469 7.33334 267.562 14.6667 271.656 22Z" fill="#D7FB01"/>
<path d="M415.406 22H420.312L408.03 0L403.125 0C407.219 7.33334 411.312 14.6667 415.406 22Z" fill="#D7FB01"/>
<path d="M648.218 22H653.125L640.843 0L635.938 0C640.031 7.33334 644.125 14.6667 648.218 22Z" fill="#D7FB01"/>
<path d="M169.051 22H173.957L161.675 0L156.77 0C160.863 7.33334 164.957 14.6667 169.051 22Z" fill="#D7FB01"/>
<path d="M312.801 22H317.707L305.425 0L300.52 0C304.613 7.33334 308.707 14.6667 312.801 22Z" fill="#D7FB01"/>
<path d="M456.178 22H460.936L449.026 0L444.27 0C448.239 7.33334 452.209 14.6667 456.178 22Z" fill="#D7FB01"/>
<path d="M545.613 22H550.52L538.237 0L533.332 0C537.426 7.33334 541.519 14.6667 545.613 22Z" fill="#D7FB01"/>
<path d="M93.6784 22H98.4362L86.526 0L81.7695 0C85.7391 7.33334 89.7087 14.6667 93.6784 22Z" fill="#D7FB01"/>
<path d="M237.428 22H242.186L230.276 0L225.52 0C229.489 7.33334 233.459 14.6667 237.428 22Z" fill="#D7FB01"/>
<path d="M380.806 22H385.415L373.877 0L369.27 0C373.115 7.33334 376.961 14.6667 380.806 22Z" fill="#D7FB01"/>
<path d="M524.409 22H529.167L517.256 0L512.5 0C516.47 7.33334 520.439 14.6667 524.409 22Z" fill="#D7FB01"/>
<path d="M613.619 22H618.228L606.69 0L602.082 0C605.928 7.33334 609.773 14.6667 613.619 22Z" fill="#D7FB01"/>
<path d="M134.827 22H139.585L127.674 0L122.918 0C126.888 7.33334 130.857 14.6667 134.827 22Z" fill="#D7FB01"/>
<path d="M278.205 22H282.814L271.276 0L266.668 0C270.514 7.33334 274.359 14.6667 278.205 22Z" fill="#D7FB01"/>
<path d="M421.955 22H426.564L415.026 0L410.418 0C414.264 7.33334 418.109 14.6667 421.955 22Z" fill="#D7FB01"/>
<path d="M654.767 22H659.376L647.838 0L643.23 0C647.076 7.33334 650.922 14.6667 654.767 22Z" fill="#D7FB01"/>
<path d="M175.599 22H180.208L168.67 0L164.062 0C167.908 7.33334 171.754 14.6667 175.599 22Z" fill="#D7FB01"/>
<path d="M319.349 22H323.958L312.42 0L307.812 0C311.658 7.33334 315.504 14.6667 319.349 22Z" fill="#D7FB01"/>
<path d="M462.952 22H467.71L455.799 0L451.043 0C455.013 7.33334 458.982 14.6667 462.952 22Z" fill="#D7FB01"/>
<path d="M552.162 22H556.771L545.233 0L540.625 0C544.471 7.33334 548.316 14.6667 552.162 22Z" fill="#D7FB01"/>
<path d="M100.452 22H105.21L93.2995 0L88.543 0C92.5126 7.33334 96.4822 14.6667 100.452 22Z" fill="#D7FB01"/>
<path d="M244.202 22H248.96L237.049 0L232.293 0C236.263 7.33334 240.232 14.6667 244.202 22Z" fill="#D7FB01"/>
<path d="M387.801 22H392.707L380.425 0L375.52 0C379.613 7.33334 383.707 14.6667 387.801 22Z" fill="#D7FB01"/>
<path d="M531.551 22H536.457L524.175 0L519.27 0C523.363 7.33334 527.457 14.6667 531.551 22Z" fill="#D7FB01"/>
<path d="M620.613 22H625.52L613.237 0L608.332 0C612.426 7.33334 616.519 14.6667 620.613 22Z" fill="#D7FB01"/>
<path d="M141.596 22H146.354L134.444 0L129.688 0C133.657 7.33334 137.627 14.6667 141.596 22Z" fill="#D7FB01"/>
<path d="M285.199 22H290.105L277.823 0L272.918 0C277.012 7.33334 281.105 14.6667 285.199 22Z" fill="#D7FB01"/>
<path d="M428.949 22H433.855L421.573 0L416.668 0C420.762 7.33334 424.855 14.6667 428.949 22Z" fill="#D7FB01"/>
<path d="M661.761 22H666.668L654.386 0L649.48 0C653.574 7.33334 657.668 14.6667 661.761 22Z" fill="#D7FB01"/>
<path d="M182.593 22H187.5L175.218 0L170.312 0C174.406 7.33334 178.5 14.6667 182.593 22Z" fill="#D7FB01"/>
<path d="M326.343 22H331.25L318.968 0L314.062 0C318.156 7.33334 322.25 14.6667 326.343 22Z" fill="#D7FB01"/>
<path d="M469.721 22H474.479L462.569 0L457.812 0C461.782 7.33334 465.752 14.6667 469.721 22Z" fill="#D7FB01"/>
<path d="M559.156 22H564.062L551.78 0L546.875 0C550.969 7.33334 555.062 14.6667 559.156 22Z" fill="#D7FB01"/>
<path d="M813.992 22H818.749L806.839 0L802.082 0C806.052 7.33334 810.022 14.6667 813.992 22Z" fill="#D7FB01"/>
<path d="M923.219 22H928.125L915.843 0L910.938 0C915.031 7.33334 919.125 14.6667 923.219 22Z" fill="#D7FB01"/>
<path d="M820.765 22H825.522L813.612 0L808.855 0C812.825 7.33334 816.795 14.6667 820.765 22Z" fill="#D7FB01"/>
<path d="M930.807 22H935.415L923.878 0L919.27 0C923.115 7.33334 926.961 14.6667 930.807 22Z" fill="#D7FB01"/>
<path d="M827.535 22H832.292L820.382 0L815.625 0C819.595 7.33334 823.565 14.6667 827.535 22Z" fill="#D7FB01"/>
<path d="M937.953 22H942.71L930.8 0L926.043 0C930.013 7.33334 933.983 14.6667 937.953 22Z" fill="#D7FB01"/>
<path d="M944.575 22H949.48L937.199 0L932.293 0C936.387 7.33334 940.481 14.6667 944.575 22Z" fill="#D7FB01"/>
<path d="M951.344 22H956.25L943.968 0L939.062 0C943.156 7.33334 947.25 14.6667 951.344 22Z" fill="#D7FB01"/>
<path d="M958.114 22H963.02L950.738 0L945.832 0C949.926 7.33334 954.02 14.6667 958.114 22Z" fill="#D7FB01"/>
<path d="M964.887 22H969.793L957.511 0L952.605 0C956.699 7.33334 960.793 14.6667 964.887 22Z" fill="#D7FB01"/>
<path d="M971.657 22H976.562L964.281 0L959.375 0C963.469 7.33334 967.563 14.6667 971.657 22Z" fill="#D7FB01"/>
<path d="M978.427 22H983.332L971.05 0L966.145 0C970.239 7.33334 974.333 14.6667 978.427 22Z" fill="#D7FB01"/>
<path d="M985.2 22H990.105L977.824 0L972.918 0C977.012 7.33334 981.106 14.6667 985.2 22Z" fill="#D7FB01"/>
<path d="M991.969 22H996.875L984.593 0L979.688 0C983.781 7.33334 987.875 14.6667 991.969 22Z" fill="#D7FB01"/>
<path d="M689.514 22H694.272L682.362 0L677.605 0C681.575 7.33334 685.545 14.6667 689.514 22Z" fill="#D7FB01"/>
<path d="M834.676 22H839.582L827.3 0L822.395 0C826.488 7.33334 830.582 14.6667 834.676 22Z" fill="#D7FB01"/>
<path d="M730.511 22H735.418L723.136 0L718.23 0C722.324 7.33334 726.418 14.6667 730.511 22Z" fill="#D7FB01"/>
<path d="M875.824 22H880.73L868.448 0L863.543 0C867.637 7.33334 871.73 14.6667 875.824 22Z" fill="#D7FB01"/>
<path d="M771.656 22H776.562L764.28 0L759.375 0C763.469 7.33334 767.562 14.6667 771.656 22Z" fill="#D7FB01"/>
<path d="M696.284 22H701.042L689.131 0L684.375 0C688.345 7.33334 692.314 14.6667 696.284 22Z" fill="#D7FB01"/>
<path d="M841.224 22H845.833L834.295 0L829.688 0C833.533 7.33334 837.379 14.6667 841.224 22Z" fill="#D7FB01"/>
<path d="M737.056 22H741.665L730.127 0L725.52 0C729.365 7.33334 733.211 14.6667 737.056 22Z" fill="#D7FB01"/>
<path d="M882.221 22H886.979L875.069 0L870.312 0C874.282 7.33334 878.252 14.6667 882.221 22Z" fill="#D7FB01"/>
<path d="M778.205 22H782.814L771.276 0L766.668 0C770.514 7.33334 774.359 14.6667 778.205 22Z" fill="#D7FB01"/>
<path d="M703.053 22H707.811L695.901 0L691.145 0C695.114 7.33334 699.084 14.6667 703.053 22Z" fill="#D7FB01"/>
<path d="M848.218 22H853.125L840.843 0L835.938 0C840.031 7.33334 844.125 14.6667 848.218 22Z" fill="#D7FB01"/>
<path d="M744.051 22H748.957L736.675 0L731.77 0C735.863 7.33334 739.957 14.6667 744.051 22Z" fill="#D7FB01"/>
<path d="M888.991 22H893.749L881.839 0L877.082 0C881.052 7.33334 885.021 14.6667 888.991 22Z" fill="#D7FB01"/>
<path d="M785.199 22H790.105L777.823 0L772.918 0C777.012 7.33334 781.105 14.6667 785.199 22Z" fill="#D7FB01"/>
<path d="M793.011 22H797.918L785.636 0L780.73 0C784.824 7.33334 788.918 14.6667 793.011 22Z" fill="#D7FB01"/>
<path d="M710.199 22H715.105L702.823 0L697.918 0C702.012 7.33334 706.105 14.6667 710.199 22Z" fill="#D7FB01"/>
<path d="M855.139 22H859.897L847.987 0L843.23 0C847.2 7.33334 851.17 14.6667 855.139 22Z" fill="#D7FB01"/>
<path d="M750.971 22H755.729L743.819 0L739.062 0C743.032 7.33334 747.002 14.6667 750.971 22Z" fill="#D7FB01"/>
<path d="M896.136 22H901.043L888.761 0L883.855 0C887.949 7.33334 892.043 14.6667 896.136 22Z" fill="#D7FB01"/>
<path d="M716.744 22H721.353L709.815 0L705.207 0C709.053 7.33334 712.898 14.6667 716.744 22Z" fill="#D7FB01"/>
<path d="M861.909 22H866.667L854.756 0L850 0C853.97 7.33334 857.939 14.6667 861.909 22Z" fill="#D7FB01"/>
<path d="M757.741 22H762.499L750.589 0L745.832 0C749.802 7.33334 753.771 14.6667 757.741 22Z" fill="#D7FB01"/>
<path d="M902.681 22H907.29L895.752 0L891.145 0C894.99 7.33334 898.836 14.6667 902.681 22Z" fill="#D7FB01"/>
<path d="M800.08 22H804.689L793.151 0L788.543 0C792.389 7.33334 796.234 14.6667 800.08 22Z" fill="#D7FB01"/>
<path d="M909.303 22H914.061L902.151 0L897.395 0C901.364 7.33334 905.334 14.6667 909.303 22Z" fill="#D7FB01"/>
<path d="M723.738 22H728.645L716.362 0L711.457 0C715.551 7.33334 719.644 14.6667 723.738 22Z" fill="#D7FB01"/>
<path d="M868.531 22H873.438L861.155 0L856.25 0C860.344 7.33334 864.437 14.6667 868.531 22Z" fill="#D7FB01"/>
<path d="M764.514 22H769.272L757.362 0L752.605 0C756.575 7.33334 760.545 14.6667 764.514 22Z" fill="#D7FB01"/>
<path d="M807.074 22H811.98L799.698 0L794.793 0C798.887 7.33334 802.98 14.6667 807.074 22Z" fill="#D7FB01"/>
<path d="M916.077 22H920.835L908.924 0L904.168 0C908.138 7.33334 912.107 14.6667 916.077 22Z" fill="#D7FB01"/>
<path d="M1000 -1.90735e-06H986.458L998.733 22H1000V-1.90735e-06Z" fill="#D7FB01"/>
</g>
<defs>
<clipPath id="clip0_418_157">
<rect width="1000" height="22" fill="white"/>
</clipPath>
</defs>
</svg>
