<svg width="20" height="70" viewBox="0 0 20 70" fill="none" xmlns="http://www.w3.org/2000/svg">
<path d="M0 0L0 16.3349L20 1.52861V0L0 0Z" fill="#E418FF"/>
<path d="M20 70V53.6651L0 68.4714L0 70H20Z" fill="#E418FF"/>
<path d="M20 40.2793V34.401L0 49.1187L0 54.9971C6.66667 50.0912 13.3333 45.1853 20 40.2793Z" fill="#E418FF"/>
<path d="M20 49.7087V44.033L0 58.2433L0 63.9189C6.66667 59.1822 13.3333 54.4455 20 49.7087Z" fill="#E418FF"/>
<path d="M20 20.8122V15.1366L0 29.3468L0 35.0225C6.66667 30.2857 13.3333 25.549 20 20.8122Z" fill="#E418FF"/>
<path d="M20 30.4441V24.7684L0 38.9786L0 44.6543C6.66667 39.9176 13.3333 35.1808 20 30.4441Z" fill="#E418FF"/>
<path d="M20 11.1804V5.50472L0 19.7149L0 25.3906C6.66667 20.6539 13.3333 15.9171 20 11.1804Z" fill="#E418FF"/>
</svg>
