<svg width="908" height="379" viewBox="0 0 908 379" fill="none" xmlns="http://www.w3.org/2000/svg">
<path d="M54.9414 362V45.9741C54.9414 37.6898 61.6571 30.9741 69.9414 30.9741H891C899.284 30.9741 906 37.6898 906 45.9741V233.004C906 235.92 905.15 238.773 903.554 241.214L819.196 370.21C816.426 374.447 811.705 377 806.643 377H69.9414C61.6571 377 54.9414 370.284 54.9414 362Z" stroke="#E418FF" stroke-width="3"/>
<path d="M2 333.369V17C2 8.71573 8.71572 2 17 2H838.059C846.343 2 853.059 8.71573 853.059 17V204.238C853.059 207.152 852.21 210.003 850.616 212.442L766.254 341.573C763.484 345.813 758.761 348.369 753.697 348.369H17C8.71573 348.369 2 341.653 2 333.369Z" fill="#E418FF" stroke="#E418FF" stroke-width="3"/>
</svg>
